<svg width="2294" height="1704" viewBox="0 0 2294 1704" fill="none" xmlns="http://www.w3.org/2000/svg">
<g clip-path="url(#clip0_833_29)">
<path d="M1581.8 415.412V281.172L1232.98 232.692V1449.4L1583.95 1286.31L1581.54 1121.18L1387.62 1211.81V821.748H1551.15V670.878H1387.62V388.118L1581.8 415.412Z" fill="#F14C1C"/>
<path d="M245.551 348.051V1058.53L401.027 1131.36L401.334 833.93L513.187 833.201H518.406V682.331L393.691 682.385V463.305L566.007 439.145V303.305L245.551 348.051Z" fill="#F14C1C"/>
<path d="M1849.82 995.989L1849.46 318.598L1695.23 297.039V1234.34L2051.71 1067.68V901.801L1849.82 995.989Z" fill="#F14C1C"/>
<path d="M963.195 247.959L964.022 1227.43L818.274 1159.4V267.932L664.714 289.546V1254.14L1118.62 1466.27V226.066L963.195 247.959Z" fill="#F14C1C"/>
<path d="M2143.03 132.6L1166.1 0.600232C1158.87 -0.186435 1151.54 -0.239742 1144.52 0.693591L133.665 138.334C129.322 138.907 125.075 139.84 120.937 141.12C76.0213 154.72 0 201.547 0 290.814V1050.89C0 1162.27 45.1765 1195.54 114.235 1228.69L1124.27 1695.67C1134.95 1700.63 1146.36 1703.16 1158.14 1703.16C1170.08 1703.16 1182.06 1700.48 1192.9 1695.31L2187.38 1233.19C2261.8 1200.37 2293.98 1179.21 2293.98 1057.45V289C2293.98 154.374 2196.12 140.654 2143.03 132.6ZM2123.99 262.374C2127.7 263.094 2161.15 267.08 2161.15 296.2V1057.48C2161.15 1085.54 2148.31 1093.45 2124.76 1105.06L1157.79 1566.41L169.273 1109.36C168.233 1108.89 167.182 1108.44 166.121 1108.03C165.778 1107.9 132.795 1093.95 132.795 1050.91V290.814C132.795 279.107 150.702 270.347 157.414 267.467L1155.48 131.534L2123.99 262.374Z" fill="#F14C1C"/>
<path d="M2001.67 395.052C2001.67 398.038 2000.12 400.532 1998.62 402.558L1996.38 405.572H1981.18V387.439H1994.24C1999.24 387.439 2001.67 389.932 2001.67 395.052ZM2009.64 414.039L2013.22 409.692C2017.19 404.798 2019.12 399.892 2019.12 394.679C2019.12 381.439 2010.67 373.545 1996.52 373.545H1973.23C1967.22 373.545 1963.19 377.359 1963.19 383.039V444.398H1981.18V419.465H1993.47L2004.02 444.398H2023.15L2009.64 414.039Z" fill="#F14C1C"/>
<path d="M2043.9 408.973C2043.9 439.146 2019.34 463.706 1989.16 463.706C1958.98 463.706 1934.42 439.146 1934.42 408.973C1934.42 378.786 1958.98 354.226 1989.16 354.226C2019.34 354.226 2043.9 378.786 2043.9 408.973ZM1989.16 338.253C1950.16 338.253 1918.44 369.973 1918.44 408.973C1918.44 447.96 1950.16 479.68 1989.16 479.68C2028.15 479.68 2059.88 447.96 2059.88 408.973C2059.88 369.973 2028.15 338.253 1989.16 338.253Z" fill="#F14C1C"/>
</g>
<defs>
<clipPath id="clip0_833_29">
<rect width="2293.98" height="1703.16" fill="white"/>
</clipPath>
</defs>
</svg>
